<svg xmlns="http://www.w3.org/2000/svg" xmlns:xlink="http://www.w3.org/1999/xlink" width="109" height="30" viewBox="0 0 109 30"><defs><path id="dlwda" d="M243.89 27.117h6.125v6.898h-6.124z"/><path id="dlwdc" d="M249.883 27.69v.587c-.806-.452-1.61-.678-2.413-.678-.861 0-1.578.282-2.15.847-.572.565-.858 1.272-.858 2.123 0 .85.282 1.556.848 2.12.565.563 1.334.844 2.306.844.702 0 1.325-.138 1.868-.414v-1.814h-1.439v-.433h1.97v2.575c-.803.379-1.609.568-2.419.568-1.056 0-1.937-.33-2.644-.992-.708-.66-1.061-1.485-1.061-2.474 0-.982.347-1.8 1.041-2.452.694-.654 1.566-.98 2.616-.98.715 0 1.494.19 2.335.573"/><path id="dlwdd" d="M257.696 33.533c.848 0 1.563-.286 2.147-.858.584-.573.875-1.275.875-2.106 0-.834-.291-1.538-.875-2.111-.584-.573-1.3-.86-2.147-.86-.853 0-1.573.287-2.163.86-.59.573-.885 1.277-.885 2.11 0 .832.295 1.534.885 2.107.59.572 1.31.858 2.163.858m-.02-6.416c1.007 0 1.861.335 2.562 1.004.7.67 1.05 1.485 1.05 2.448 0 .96-.35 1.774-1.05 2.443-.7.668-1.555 1.003-2.562 1.003-1.004 0-1.855-.335-2.553-1.003-.697-.67-1.046-1.484-1.046-2.443 0-.963.35-1.779 1.046-2.448.698-.669 1.549-1.004 2.553-1.004"/><path id="dlwde" d="M271.346 27.202v6.724h3.895v-.433h-3.369v-6.29z"/><path id="dlwdf" d="M281.564 28.004l1.468 3.167h-2.93zm-.14-.847l-3.149 6.772h.553l1.073-2.325h3.332l1.077 2.325h.552l-3.149-6.772z"/><path id="dlwdg" d="M290.397 30.755c1.336 0 2.005.459 2.005 1.376 0 .414-.151.744-.452.992-.302.247-.743.37-1.324.37h-1.406v-2.738zm-.465-3.12c1.251 0 1.877.45 1.877 1.347 0 .894-.62 1.34-1.858 1.34h-.731v-2.687zm-1.239 6.292h1.995c.701 0 1.258-.161 1.67-.484.41-.322.616-.757.616-1.302 0-.912-.525-1.48-1.575-1.704.653-.35.98-.85.98-1.497 0-.542-.192-.968-.575-1.275-.384-.309-.947-.463-1.692-.463h-1.419z"/><path id="dlwdh" d="M306.419 30.177c0 2.165-1.778 3.92-3.971 3.92-2.194 0-3.971-1.755-3.971-3.92s1.777-3.92 3.97-3.92c2.194 0 3.972 1.755 3.972 3.92"/><path id="dlwdi" d="M317.854 30.177c0 2.165-1.778 3.92-3.971 3.92s-3.971-1.755-3.971-3.92 1.778-3.92 3.97-3.92c2.194 0 3.972 1.755 3.972 3.92"/><path id="dlwdj" d="M329.289 30.007c0 2.165-1.778 3.92-3.971 3.92s-3.971-1.755-3.971-3.92 1.778-3.92 3.97-3.92c2.194 0 3.972 1.755 3.972 3.92"/><clipPath id="dlwdb"><use xlink:href="#dlwda"/></clipPath></defs><g><g transform="translate(-232 -15)"><g><g><g><g/><g clip-path="url(#dlwdb)"><use fill="#252525" xlink:href="#dlwdc"/></g></g><g><use fill="#252525" xlink:href="#dlwdd"/></g></g><g><use fill="#252525" xlink:href="#dlwde"/></g><g><use fill="#252525" xlink:href="#dlwdf"/></g><g><g><use fill="#252525" xlink:href="#dlwdg"/></g><g><use fill="#ed291c" xlink:href="#dlwdh"/></g><g><use fill="#ed291c" xlink:href="#dlwdi"/></g><g><use fill="#ed291c" xlink:href="#dlwdj"/></g></g></g></g></g></svg>